# xmcd
#
# Track frame offsets: 
#        150
#        22400
#        39542
#        61427
#        79440
#
# Disc length: 1262 seconds
#
# Revision: 6
# Processed by: cddbd v1.5.1PL0 Copyright (c) Steve Scherf et al.
# Submitted via: ExactAudioCopy v0.95a4
#
DISCID=4404ec05
DTITLE=The Immortals - Mortal Kombat [Single]
DYEAR=1993
DGENRE=Techno
TTITLE0=Mortal Kombat (Hypnotic House 12" Mix)
TTITLE1=Mortal Kombat (Hypnotic House 7" Mix)
TTITLE2=Mortal Kombat (Techno-Syndrome 12" Mix)
TTITLE3=Mortal Kombat (Mortal Kombat Mix)
TTITLE4=Mortal Kombat (Techno-Syndrome 7" Mix)
EXTD=Vernon Yard YARD CD 5 YEAR: 1993
EXTT0=
EXTT1=
EXTT2=
EXTT3=
EXTT4=
PLAYORDER=
